<mxfile host="app.diagrams.net" agent="Mozilla/5.0 (Windows NT 10.0; Win64; x64) AppleWebKit/537.36 (KHTML, like Gecko) Chrome/135.0.0.0 Safari/537.36" version="27.1.1">
  <diagram id="C5RBs43oDa-KdzZeNtuy" name="Page-1">
    <mxGraphModel dx="621" dy="253" grid="1" gridSize="10" guides="1" tooltips="1" connect="1" arrows="1" fold="1" page="1" pageScale="1" pageWidth="827" pageHeight="1169" math="0" shadow="0">
      <root>
        <mxCell id="WIyWlLk6GJQsqaUBKTNV-0" />
        <mxCell id="WIyWlLk6GJQsqaUBKTNV-1" parent="WIyWlLk6GJQsqaUBKTNV-0" />
        <mxCell id="w9FTeUMRJ2UuyT-5YJU0-2" value="" style="edgeStyle=orthogonalEdgeStyle;rounded=0;orthogonalLoop=1;jettySize=auto;html=1;" edge="1" parent="WIyWlLk6GJQsqaUBKTNV-1" source="w9FTeUMRJ2UuyT-5YJU0-0" target="w9FTeUMRJ2UuyT-5YJU0-1">
          <mxGeometry relative="1" as="geometry" />
        </mxCell>
        <mxCell id="w9FTeUMRJ2UuyT-5YJU0-0" value="Dagster&lt;div&gt;orchestrates&lt;/div&gt;&lt;div&gt;DLT pipeline&lt;/div&gt;" style="ellipse;whiteSpace=wrap;html=1;aspect=fixed;" vertex="1" parent="WIyWlLk6GJQsqaUBKTNV-1">
          <mxGeometry x="290" y="190" width="80" height="80" as="geometry" />
        </mxCell>
        <mxCell id="w9FTeUMRJ2UuyT-5YJU0-5" value="" style="edgeStyle=orthogonalEdgeStyle;rounded=0;orthogonalLoop=1;jettySize=auto;html=1;" edge="1" parent="WIyWlLk6GJQsqaUBKTNV-1" target="w9FTeUMRJ2UuyT-5YJU0-4">
          <mxGeometry relative="1" as="geometry">
            <mxPoint x="330" y="510" as="sourcePoint" />
          </mxGeometry>
        </mxCell>
        <mxCell id="w9FTeUMRJ2UuyT-5YJU0-38" value="" style="edgeStyle=orthogonalEdgeStyle;rounded=0;orthogonalLoop=1;jettySize=auto;html=1;" edge="1" parent="WIyWlLk6GJQsqaUBKTNV-1" source="w9FTeUMRJ2UuyT-5YJU0-1" target="w9FTeUMRJ2UuyT-5YJU0-37">
          <mxGeometry relative="1" as="geometry" />
        </mxCell>
        <mxCell id="w9FTeUMRJ2UuyT-5YJU0-1" value="Jobs&lt;div&gt;DuckDB&lt;/div&gt;" style="shape=cylinder3;whiteSpace=wrap;html=1;boundedLbl=1;backgroundOutline=1;size=15;" vertex="1" parent="WIyWlLk6GJQsqaUBKTNV-1">
          <mxGeometry x="300" y="320" width="60" height="80" as="geometry" />
        </mxCell>
        <mxCell id="w9FTeUMRJ2UuyT-5YJU0-3" value="Update the database" style="whiteSpace=wrap;html=1;" vertex="1" parent="WIyWlLk6GJQsqaUBKTNV-1">
          <mxGeometry x="270" y="280" width="120" height="20" as="geometry" />
        </mxCell>
        <mxCell id="w9FTeUMRJ2UuyT-5YJU0-7" value="" style="edgeStyle=orthogonalEdgeStyle;rounded=0;orthogonalLoop=1;jettySize=auto;html=1;" edge="1" parent="WIyWlLk6GJQsqaUBKTNV-1" source="w9FTeUMRJ2UuyT-5YJU0-4" target="w9FTeUMRJ2UuyT-5YJU0-6">
          <mxGeometry relative="1" as="geometry" />
        </mxCell>
        <mxCell id="w9FTeUMRJ2UuyT-5YJU0-4" value="Streamlit" style="shape=process;whiteSpace=wrap;html=1;backgroundOutline=1;" vertex="1" parent="WIyWlLk6GJQsqaUBKTNV-1">
          <mxGeometry x="270" y="540" width="120" height="60" as="geometry" />
        </mxCell>
        <mxCell id="w9FTeUMRJ2UuyT-5YJU0-14" value="" style="edgeStyle=orthogonalEdgeStyle;rounded=0;orthogonalLoop=1;jettySize=auto;html=1;" edge="1" parent="WIyWlLk6GJQsqaUBKTNV-1" source="w9FTeUMRJ2UuyT-5YJU0-6" target="w9FTeUMRJ2UuyT-5YJU0-13">
          <mxGeometry relative="1" as="geometry" />
        </mxCell>
        <mxCell id="w9FTeUMRJ2UuyT-5YJU0-6" value="Dashboard" style="rounded=0;whiteSpace=wrap;html=1;" vertex="1" parent="WIyWlLk6GJQsqaUBKTNV-1">
          <mxGeometry x="270" y="630" width="120" height="60" as="geometry" />
        </mxCell>
        <mxCell id="w9FTeUMRJ2UuyT-5YJU0-9" value="Charts" style="rhombus;whiteSpace=wrap;html=1;" vertex="1" parent="WIyWlLk6GJQsqaUBKTNV-1">
          <mxGeometry x="200" y="920" width="80" height="80" as="geometry" />
        </mxCell>
        <mxCell id="w9FTeUMRJ2UuyT-5YJU0-41" value="" style="edgeStyle=orthogonalEdgeStyle;rounded=0;orthogonalLoop=1;jettySize=auto;html=1;" edge="1" parent="WIyWlLk6GJQsqaUBKTNV-1" source="w9FTeUMRJ2UuyT-5YJU0-10" target="w9FTeUMRJ2UuyT-5YJU0-9">
          <mxGeometry relative="1" as="geometry" />
        </mxCell>
        <mxCell id="w9FTeUMRJ2UuyT-5YJU0-10" value="KPI" style="rhombus;whiteSpace=wrap;html=1;" vertex="1" parent="WIyWlLk6GJQsqaUBKTNV-1">
          <mxGeometry x="90" y="920" width="80" height="80" as="geometry" />
        </mxCell>
        <mxCell id="w9FTeUMRJ2UuyT-5YJU0-31" style="edgeStyle=orthogonalEdgeStyle;rounded=0;orthogonalLoop=1;jettySize=auto;html=1;" edge="1" parent="WIyWlLk6GJQsqaUBKTNV-1" source="w9FTeUMRJ2UuyT-5YJU0-11" target="w9FTeUMRJ2UuyT-5YJU0-27">
          <mxGeometry relative="1" as="geometry" />
        </mxCell>
        <mxCell id="w9FTeUMRJ2UuyT-5YJU0-46" value="" style="edgeStyle=orthogonalEdgeStyle;rounded=0;orthogonalLoop=1;jettySize=auto;html=1;" edge="1" parent="WIyWlLk6GJQsqaUBKTNV-1" source="w9FTeUMRJ2UuyT-5YJU0-11" target="w9FTeUMRJ2UuyT-5YJU0-9">
          <mxGeometry relative="1" as="geometry" />
        </mxCell>
        <mxCell id="w9FTeUMRJ2UuyT-5YJU0-11" value="LLM" style="rhombus;whiteSpace=wrap;html=1;" vertex="1" parent="WIyWlLk6GJQsqaUBKTNV-1">
          <mxGeometry x="380" y="920" width="80" height="80" as="geometry" />
        </mxCell>
        <mxCell id="w9FTeUMRJ2UuyT-5YJU0-12" value="Categories" style="rounded=1;whiteSpace=wrap;html=1;" vertex="1" parent="WIyWlLk6GJQsqaUBKTNV-1">
          <mxGeometry x="280" y="715" width="100" height="35" as="geometry" />
        </mxCell>
        <mxCell id="w9FTeUMRJ2UuyT-5YJU0-16" style="edgeStyle=orthogonalEdgeStyle;rounded=0;orthogonalLoop=1;jettySize=auto;html=1;entryX=0.5;entryY=0;entryDx=0;entryDy=0;exitX=0.75;exitY=1;exitDx=0;exitDy=0;" edge="1" parent="WIyWlLk6GJQsqaUBKTNV-1" source="w9FTeUMRJ2UuyT-5YJU0-13" target="w9FTeUMRJ2UuyT-5YJU0-39">
          <mxGeometry relative="1" as="geometry">
            <mxPoint x="330" y="800" as="sourcePoint" />
            <mxPoint x="420" y="830" as="targetPoint" />
          </mxGeometry>
        </mxCell>
        <mxCell id="w9FTeUMRJ2UuyT-5YJU0-40" style="edgeStyle=orthogonalEdgeStyle;rounded=0;orthogonalLoop=1;jettySize=auto;html=1;entryX=0.5;entryY=0;entryDx=0;entryDy=0;exitX=0;exitY=0.25;exitDx=0;exitDy=0;" edge="1" parent="WIyWlLk6GJQsqaUBKTNV-1" source="w9FTeUMRJ2UuyT-5YJU0-13" target="w9FTeUMRJ2UuyT-5YJU0-10">
          <mxGeometry relative="1" as="geometry" />
        </mxCell>
        <mxCell id="w9FTeUMRJ2UuyT-5YJU0-13" value="Filters" style="rounded=1;whiteSpace=wrap;html=1;" vertex="1" parent="WIyWlLk6GJQsqaUBKTNV-1">
          <mxGeometry x="280" y="770" width="100" height="30" as="geometry" />
        </mxCell>
        <mxCell id="w9FTeUMRJ2UuyT-5YJU0-27" value="Showing Data" style="ellipse;shape=cloud;whiteSpace=wrap;html=1;" vertex="1" parent="WIyWlLk6GJQsqaUBKTNV-1">
          <mxGeometry x="270" y="1040" width="120" height="80" as="geometry" />
        </mxCell>
        <mxCell id="w9FTeUMRJ2UuyT-5YJU0-28" style="edgeStyle=orthogonalEdgeStyle;rounded=0;orthogonalLoop=1;jettySize=auto;html=1;entryX=0.514;entryY=0.163;entryDx=0;entryDy=0;entryPerimeter=0;" edge="1" parent="WIyWlLk6GJQsqaUBKTNV-1" source="w9FTeUMRJ2UuyT-5YJU0-9" target="w9FTeUMRJ2UuyT-5YJU0-27">
          <mxGeometry relative="1" as="geometry" />
        </mxCell>
        <mxCell id="w9FTeUMRJ2UuyT-5YJU0-35" value="" style="edgeStyle=orthogonalEdgeStyle;rounded=0;orthogonalLoop=1;jettySize=auto;html=1;" edge="1" parent="WIyWlLk6GJQsqaUBKTNV-1" source="w9FTeUMRJ2UuyT-5YJU0-34" target="w9FTeUMRJ2UuyT-5YJU0-0">
          <mxGeometry relative="1" as="geometry" />
        </mxCell>
        <mxCell id="w9FTeUMRJ2UuyT-5YJU0-34" value="Jobtech API" style="shape=hexagon;perimeter=hexagonPerimeter2;whiteSpace=wrap;html=1;fixedSize=1;" vertex="1" parent="WIyWlLk6GJQsqaUBKTNV-1">
          <mxGeometry x="270" y="70" width="120" height="80" as="geometry" />
        </mxCell>
        <mxCell id="w9FTeUMRJ2UuyT-5YJU0-37" value="DBT&lt;div&gt;&lt;span style=&quot;background-color: transparent; color: light-dark(rgb(0, 0, 0), rgb(255, 255, 255));&quot;&gt;Transforms&lt;/span&gt;&lt;/div&gt;&lt;div&gt;&lt;span style=&quot;background-color: transparent; color: light-dark(rgb(0, 0, 0), rgb(255, 255, 255));&quot;&gt;data&lt;/span&gt;&lt;/div&gt;" style="rhombus;whiteSpace=wrap;html=1;" vertex="1" parent="WIyWlLk6GJQsqaUBKTNV-1">
          <mxGeometry x="290" y="430" width="80" height="80" as="geometry" />
        </mxCell>
        <mxCell id="w9FTeUMRJ2UuyT-5YJU0-42" style="edgeStyle=orthogonalEdgeStyle;rounded=0;orthogonalLoop=1;jettySize=auto;html=1;entryX=0;entryY=0.5;entryDx=0;entryDy=0;" edge="1" parent="WIyWlLk6GJQsqaUBKTNV-1" source="w9FTeUMRJ2UuyT-5YJU0-39" target="w9FTeUMRJ2UuyT-5YJU0-11">
          <mxGeometry relative="1" as="geometry" />
        </mxCell>
        <mxCell id="w9FTeUMRJ2UuyT-5YJU0-44" style="edgeStyle=orthogonalEdgeStyle;rounded=0;orthogonalLoop=1;jettySize=auto;html=1;entryX=1;entryY=0.5;entryDx=0;entryDy=0;exitX=0.086;exitY=0.829;exitDx=0;exitDy=0;exitPerimeter=0;" edge="1" parent="WIyWlLk6GJQsqaUBKTNV-1" source="w9FTeUMRJ2UuyT-5YJU0-39" target="w9FTeUMRJ2UuyT-5YJU0-9">
          <mxGeometry relative="1" as="geometry">
            <Array as="points">
              <mxPoint x="360" y="896" />
              <mxPoint x="360" y="960" />
            </Array>
          </mxGeometry>
        </mxCell>
        <mxCell id="w9FTeUMRJ2UuyT-5YJU0-39" value="Generates SQL querys" style="ellipse;whiteSpace=wrap;html=1;" vertex="1" parent="WIyWlLk6GJQsqaUBKTNV-1">
          <mxGeometry x="300" y="830" width="120" height="80" as="geometry" />
        </mxCell>
        <mxCell id="w9FTeUMRJ2UuyT-5YJU0-47" style="edgeStyle=orthogonalEdgeStyle;rounded=0;orthogonalLoop=1;jettySize=auto;html=1;exitX=0.5;exitY=1;exitDx=0;exitDy=0;" edge="1" parent="WIyWlLk6GJQsqaUBKTNV-1" source="w9FTeUMRJ2UuyT-5YJU0-10">
          <mxGeometry relative="1" as="geometry">
            <mxPoint x="330" y="1040" as="targetPoint" />
          </mxGeometry>
        </mxCell>
        <mxCell id="w9FTeUMRJ2UuyT-5YJU0-48" value="Filters are able to generate SQL querys to change what data to show" style="text;html=1;align=center;verticalAlign=middle;whiteSpace=wrap;rounded=0;" vertex="1" parent="WIyWlLk6GJQsqaUBKTNV-1">
          <mxGeometry x="200" y="830" width="60" height="30" as="geometry" />
        </mxCell>
      </root>
    </mxGraphModel>
  </diagram>
</mxfile>
